<svg width="256" height="256" viewBox="0 0 256 256" fill="none" xmlns="http://www.w3.org/2000/svg">
<rect width="256" height="256" rx="30" fill="#6633FF"/>
<g clip-path="url(#clip0)">
<path d="M33.6758 109.436C24.1385 77.3911 28.902 46.7375 69.4048 35.1363C79.6764 32.1942 95.3332 30.0686 105.961 29.9024C144.759 29.2945 225.099 29.776 226.934 29.921C227.943 30.0021 224.061 45.3915 217.256 55.5681C206.127 72.2104 190.275 80.0221 170.247 81.0383C145.584 82.2899 120.852 82.5227 96.1507 82.5347C71.6933 82.5466 50.7089 89.9114 34.5892 109.122C34.4112 109.335 33.9875 109.34 33.6758 109.436Z" fill="white"/>
<path d="M155.673 101.908L90.2463 101.788C56.3208 102.084 28.9087 129.863 28.9087 164.091C28.9087 198.32 56.3208 226.098 90.2463 226.395V145.998H155.673V101.908Z" fill="white"/>
</g>
<defs>
<clipPath id="clip0">
<rect width="198.182" height="196.789" fill="white" transform="translate(28.9087 29.6055)"/>
</clipPath>
</defs>
</svg>

