<svg id="Layer_1" data-name="Layer 1" xmlns="http://www.w3.org/2000/svg" viewBox="0 0 551.74 159.36"><defs><style>.cls-1,.cls-2{fill:#52bd94;}.cls-1{fill-rule:evenodd;}</style></defs><path class="cls-1" d="M161.13,64.41A32.21,32.21,0,0,1,185.4,53.89c8.85,0,15.76,2.74,20.12,8V57.53a2.44,2.44,0,0,1,2.3-2.32H219.5a2.45,2.45,0,0,1,2.27,2.32v64.85a39.57,39.57,0,0,1-8,25.44c-6.3,7.66-15.86,11.54-28.42,11.54-17.46,0-31.24-11.05-33.51-26.83a2.44,2.44,0,0,1,1.76-2.59l11.41-2.68a1.13,1.13,0,0,1,.18,0,2.28,2.28,0,0,1,2.6,1.93A17.26,17.26,0,0,0,185.4,144.4c13.64,0,20-7,20-21.63v-5.68a25.66,25.66,0,0,1-20,8.56c-19.41,0-33.49-15.07-33.49-35.81A37.76,37.76,0,0,1,161.13,64.41ZM387.62,53h.61c20.87.28,33.8,14.81,33.8,38.06a35.09,35.09,0,0,1-.2,3.69,2.27,2.27,0,0,1-2.24,2H370a19.08,19.08,0,0,0,19.35,18.51,17.39,17.39,0,0,0,17.75-12.39,2.28,2.28,0,0,1,2.85-1.37l9.9,3.49a2.12,2.12,0,0,1,1.3,1.17,2.26,2.26,0,0,1,.12,1.73,32.66,32.66,0,0,1-31.92,22.2,35.3,35.3,0,0,1-25.18-10.22,39.4,39.4,0,0,1-10.8-28.56c0-24,17.44-38.37,34.29-38.37ZM106.94,53c21.24,0,34.44,14.59,34.44,38.07a35.09,35.09,0,0,1-.2,3.69,2.25,2.25,0,0,1-2.24,2H89.33a19.08,19.08,0,0,0,19.41,18.51,17.38,17.38,0,0,0,17.76-12.39,2.26,2.26,0,0,1,2.85-1.37l9.91,3.49a2.16,2.16,0,0,1,1.29,1.17,2.26,2.26,0,0,1,0,1.73,32.67,32.67,0,0,1-31.9,22.2,35.29,35.29,0,0,1-25.22-10.22A39.46,39.46,0,0,1,72.62,91.36c0-24,17.44-38.37,34.3-38.37ZM31.79,53c9.54,0,17.25,2.31,23,6.88A25,25,0,0,1,63,71.77s0,0,0,0a1.55,1.55,0,0,1-1.15,1.88L50,77.58a2.29,2.29,0,0,1-1.63,0,1.72,1.72,0,0,1-.93-1.08c-1-3.83-4.44-10.26-15.64-10.26-7.8,0-12.48,4.48-12.48,8.82,0,2.88,1.48,6.59,8.53,7.93l13,2.44c14.53,2.93,22.85,10.88,22.85,21.95l0-.19c0,11-10.58,22.75-30.24,22.75C10.62,129.94,1.67,117,0,109.43a1.64,1.64,0,0,1,1.21-1.81l12.2-3.8a1.83,1.83,0,0,1,.66,0,2.05,2.05,0,0,1,1,.24,1.71,1.71,0,0,1,.9,1.1c1.54,7.32,8.15,11.68,17.66,11.68,8.85,0,12.88-4.63,12.88-8.83s-3.59-7.29-9.76-8.53L23.09,96.82C10.33,94.41,2.38,86.48,2.38,76.16,2.38,63.6,15.87,53,31.79,53ZM534.35,32.65a2.45,2.45,0,0,1,2.29,2.44v20h12.82a2.45,2.45,0,0,1,2.28,2.44V68.19a2.3,2.3,0,0,1-2.28,2.31H536.64v35.59c0,5.9,2.34,8.34,8.36,8.34a31.2,31.2,0,0,0,4.1-.34,2.28,2.28,0,0,1,1.86.51,2.52,2.52,0,0,1,.78,1.76v10a2.3,2.3,0,0,1-1.64,2.22,31.61,31.61,0,0,1-9,1.17c-12.86,0-20.83-8.27-20.83-21.61V70.65h-11.1a2.44,2.44,0,0,1-2.29-2.32V57.65a2.43,2.43,0,0,1,2.29-2.44H512c3.49,0,9.37-1.22,9.37-9.54V35.09a2.43,2.43,0,0,1,2.29-2.44ZM293.54,64.92A26.42,26.42,0,0,1,316.81,53h0c12.68,0,25.49,8.93,25.49,28.44V126.6a2.45,2.45,0,0,1-2.3,2.32H328.3A2.45,2.45,0,0,1,326,126.6V82.89C326,77.36,324.27,68,312.57,68c-8.56,0-14.64,6.73-14.64,16.49V126.6a2.44,2.44,0,0,1-2.29,2.32H283.81a2.45,2.45,0,0,1-2.29-2.32V82.89c0-5.53-1.73-14.85-13.44-14.85-8.9,0-14.9,6.68-14.9,16.63V126.6a2.45,2.45,0,0,1-2.29,2.32H239.2a2.43,2.43,0,0,1-2.26-2.32V57.38a2.44,2.44,0,0,1,2.26-2.32h11.25a2.45,2.45,0,0,1,2.29,2.32v4.17A26.29,26.29,0,0,1,272.49,53,23.33,23.33,0,0,1,293.54,64.92ZM471.66,53a24.69,24.69,0,0,1,19.81,8.61A32.2,32.2,0,0,1,498,82.45V126.6a2.44,2.44,0,0,1-2.26,2.32H483.91a2.46,2.46,0,0,1-2.3-2.32V84.82c0-10.93-5.14-16.49-14.9-16.49a13.57,13.57,0,0,0-11.1,5.17,21.44,21.44,0,0,0-3.8,13V126.6a2.45,2.45,0,0,1-2.29,2.32H437.71a2.45,2.45,0,0,1-2.29-2.32V57.33A2.43,2.43,0,0,1,437.71,55h11.54a2.44,2.44,0,0,1,2.27,2.31v4.88A25.41,25.41,0,0,1,471.66,53ZM187.42,68.48c-11.51,0-18.82,8.19-18.82,21.36s7.22,21.35,18.82,21.35c11.08,0,18.54-8.59,18.54-21.35S198.5,68.48,187.42,68.48Zm-80.36-.66A17.07,17.07,0,0,0,89.82,83h34.7C123.67,73.63,117,67.82,107.06,67.82Zm280.75,0A17.07,17.07,0,0,0,370.57,83h34.71C404.42,73.63,397.76,67.82,387.81,67.82Z"/><path class="cls-2" d="M19.59,6.19V29.45H13V6.19H3.89V.55H28.75V6.19Z"/><path class="cls-2" d="M69.93,29.55H63.08L56.84,8.25l-6.39,21.3H43.7L35.2.55h7l5.39,20.89L53.67.55h7l6,20.89L71.89.55h6.44Z"/><path class="cls-2" d="M87.4,29.45V.55h6.49v28.9Z"/><path class="cls-2" d="M105.57,29.45V.55h6.59V23.76h11.28v5.69Z"/><path class="cls-2" d="M133.26,29.45V.55h6.49v28.9Z"/><path class="cls-2" d="M164.26,30c-7.95,0-14.39-5.74-14.39-14.95s6.49-15,14.45-15,14.39,5.74,14.39,15S172.27,30,164.26,30Zm.06-24.66c-5,0-7.91,4.12-7.91,9.66s3,9.71,7.91,9.71,7.8-4.22,7.8-9.66S169.15,5.34,164.32,5.34Z"/></svg>